<svg version="1.1" id="Layer_1" xmlns="http://www.w3.org/2000/svg" xmlns:xlink="http://www.w3.org/1999/xlink" x="0px" y="0px"
	 viewBox="0 0 1000 1000" style="enable-background:new 0 0 1000 1000;" xml:space="preserve">
<style type="text/css">
	.st0{fill:#2A96C9;}
	.st1{fill:#1B196B;}
	.st2{font-family:'OswaldHeavy-Regular';}
	.st3{font-size:164.3074px;}
</style>
<g id="NewGroupe0_3_">
	<g>
		<g>
			<g>
				<path class="st0" d="M234.73,432.1c0,81.04,36.36,156.79,98.3,207.62c2.5-6.19,6.08-11.74,10.53-16.49
					c-56.37-47.13-89.39-116.74-89.39-191.13c0-103.53,63.47-192.5,153.53-230.1c2.72-8.44,5.67-16.48,8.76-24.06
					C310.87,214.16,234.73,314.37,234.73,432.1z"/>
				<path class="st0" d="M590.36,177.93c3.1,7.58,6.04,15.62,8.76,24.07c90.06,37.6,153.53,126.56,153.53,230.1
					c0,74.16-33.09,143.94-89.41,191.1c4.45,4.75,8.04,10.31,10.54,16.51c61.88-50.84,98.3-126.82,98.3-207.61
					C772.1,314.37,695.96,214.16,590.36,177.93z"/>
				<path class="st0" d="M359.56,648.24l5.75-8.63c-0.46-0.31-0.88-0.65-1.34-0.95C361.93,641.67,360.46,644.91,359.56,648.24z"/>
				<path class="st0" d="M503.42,209.54c-17.17,0-31.09,13.92-31.09,31.09s13.92,31.09,31.09,31.09c17.17,0,31.08-13.92,31.08-31.09
					S520.59,209.54,503.42,209.54z"/>
			</g>
			<g>
				<path class="st1" d="M403.48,389c-0.54,0.69-1.03,1.3-1.62,2.07c-4.77,6.22-10.91,14.74-16.4,23.7
					c-5.54,8.93-10.42,18.28-13.61,25.53c-1.59,3.63-2.84,6.69-3.59,8.88c-0.81,2.18-1.27,3.42-1.27,3.42s0.31-1.29,0.84-3.55
					c0.48-2.28,1.35-5.48,2.5-9.32c2.3-7.65,6.06-17.69,10.57-27.42c4.45-9.75,9.62-19.17,13.72-26.14
					c2.53-4.31,4.58-7.53,5.86-9.48c-2.01-8.84-3.64-17.53-4.9-26.06c-42.91,45.13-53.32,98.3-55.62,115.28h92.92
					C419.6,439.27,409.98,413.57,403.48,389z"/>
				<path class="st1" d="M634.99,440.3c-3.19-7.25-8.07-16.6-13.61-25.53c-5.49-8.96-11.63-17.48-16.4-23.7
					c-0.59-0.77-1.08-1.38-1.62-2.07c-6.5,24.57-16.12,50.27-29.39,76.92h92.99c-2.11-17.27-11.99-70.74-55.58-115.96
					c-1.28,8.75-2.95,17.67-5.02,26.75c1.28,1.95,3.33,5.17,5.86,9.48c4.1,6.96,9.27,16.38,13.72,26.14
					c4.5,9.73,8.26,19.76,10.57,27.42c1.15,3.83,2.02,7.04,2.5,9.32c0.53,2.26,0.84,3.55,0.84,3.55s-0.46-1.24-1.27-3.42
					C637.83,446.99,636.58,443.92,634.99,440.3z"/>
				<polygon class="st1" points="539.63,567.33 580.63,608.32 561.11,476.27 531.88,476.27 508.46,476.27 503.42,666.74 
					498.37,476.27 474.96,476.27 445.72,476.27 426.2,608.33 467.21,567.34 454.18,645.99 476.4,623.77 503.42,760.42 
					530.44,623.77 552.66,645.99 				"/>
				<path class="st1" d="M403.68,335.32c0.23,2.15,0.57,4.32,0.85,6.47c5.28,41.01,18.51,82.47,39.87,124.12h21.86h5.26h4.06
					c-0.85-1.6-1.77-3.39-2.8-5.41c-0.07-0.14-0.16-0.33-0.23-0.47c-1.18-2.38-2.48-5.08-3.85-8c-3.56-7.61-7.61-16.92-11.54-27.84
					c-2.97-7.61-5.56-16.07-8.29-25.01c-2.67-8.95-4.94-18.56-7.23-28.47c-1.72-10.04-4.21-20.29-5.13-30.95
					c-0.62-5.3-1.25-10.65-1.89-16.01l-0.23-4.87l-0.28-5.97l-0.25-5.39c-0.01-0.13-0.01-0.26-0.02-0.4
					c-0.79-10.69-0.13-21.4,0.22-31.92c-0.06-10.68,2.07-21.04,3.04-31.11c0.3-2.52,0.61-5.01,0.91-7.48
					c0.52-2.44,1.03-4.85,1.53-7.23c1.02-4.77,2.02-9.43,2.99-13.97c1.61-9.16,4.44-17.48,6.9-25.19c0.17-0.52,0.3-0.98,0.47-1.5
					c2.32-7.09,4.02-13.82,6.53-19.42c0.27-0.65,0.5-1.18,0.77-1.81c2.23-5.24,4.24-9.96,5.89-13.84c3.69-8.66,5.8-13.62,5.8-13.62
					s-1.96,5.01-5.39,13.79c-1.48,3.79-3.28,8.39-5.27,13.48c-0.31,0.8-0.58,1.5-0.91,2.32c-2.23,5.42-3.72,11.89-5.68,18.69
					c-0.23,0.8-0.41,1.54-0.66,2.36c-2.21,7.75-4.78,16.09-6.1,25.24c-0.83,4.53-1.68,9.19-2.55,13.95
					c-0.43,2.38-0.86,4.78-1.3,7.21c-0.22,2.46-0.45,4.94-0.67,7.44c-0.65,10.02-2.46,20.29-2.08,30.86
					c-0.03,9.55-0.27,19.23,0.53,28.89c0.08,1,0.12,2,0.23,2.99l0.2,2.57l0.45,5.9l0.57,7.48c0.78,5.26,1.56,10.5,2.33,15.7
					c1.22,10.45,3.98,20.46,5.95,30.24c2.54,9.66,5.04,19.01,7.92,27.69c2.94,8.67,5.71,16.86,8.84,24.21
					c2.1,5.33,4.2,10.12,6.26,14.65c1.31,2.89,2.58,5.6,3.83,8.14c1.38,2.81,2.67,5.39,3.9,7.75c0.77,1.48,1.57,3.02,2.26,4.32
					c2.22,4.07,4,7.2,5.26,9.24c0.21,0.34,0.3,0.49,0.48,0.78h32.22c0.18-0.29,0.27-0.44,0.48-0.78c1.26-2.03,3.04-5.16,5.26-9.24
					c0.7-1.3,1.49-2.84,2.26-4.33c1.23-2.36,2.52-4.93,3.89-7.74c1.24-2.54,2.51-5.26,3.83-8.15c2.06-4.52,4.16-9.31,6.26-14.64
					c3.13-7.35,5.9-15.54,8.85-24.21c2.88-8.68,5.38-18.03,7.92-27.69c1.97-9.79,4.74-19.8,5.95-30.24
					c0.77-5.2,1.55-10.44,2.33-15.7l0.59-7.73l0.43-5.65l0.2-2.57c0.11-1,0.15-2,0.23-3c0.8-9.66,0.56-19.34,0.53-28.88
					c0.38-10.56-1.43-20.83-2.08-30.86c-0.23-2.5-0.45-4.98-0.67-7.44c-0.44-2.43-0.87-4.83-1.3-7.21
					c-0.87-4.76-1.72-9.41-2.55-13.95c-1.33-9.15-3.89-17.49-6.1-25.24c-0.25-0.81-0.43-1.55-0.66-2.36
					c-1.96-6.8-3.45-13.27-5.68-18.69c-0.32-0.83-0.6-1.52-0.91-2.32c-1.99-5.09-3.79-9.69-5.27-13.48
					c-3.43-8.77-5.39-13.79-5.39-13.79s2.11,4.95,5.8,13.62c1.65,3.87,3.66,8.59,5.89,13.84c0.27,0.63,0.5,1.17,0.77,1.81
					c2.51,5.6,4.21,12.33,6.53,19.42c0.17,0.51,0.29,0.98,0.47,1.5c2.46,7.71,5.29,16.03,6.9,25.19c0.97,4.54,1.97,9.2,2.99,13.97
					c0.51,2.39,1.01,4.8,1.53,7.23c0.3,2.47,0.6,4.96,0.91,7.48c0.96,10.08,3.09,20.44,3.04,31.11c0.35,10.52,1.01,21.23,0.22,31.92
					c-0.01,0.13-0.01,0.26-0.02,0.4l-0.25,5.39l-0.27,5.69l-0.24,5.15c-0.63,5.37-1.26,10.71-1.89,16.01
					c-0.93,10.67-3.41,20.91-5.13,30.95c-2.29,9.91-4.56,19.52-7.23,28.47c-2.73,8.94-5.32,17.4-8.29,25.01
					c-3.93,10.92-7.98,20.23-11.54,27.83c-1.37,2.93-2.67,5.64-3.85,8.02c-0.07,0.14-0.16,0.33-0.23,0.47
					c-1.03,2.03-1.95,3.81-2.8,5.41h4.06h5.26h21.85c21.46-41.84,34.72-83.48,39.94-124.68c0.25-1.97,0.56-3.94,0.77-5.91
					c0.22-2.05,0.36-4.09,0.54-6.13c3.7-41.75-0.9-83.02-14.02-123.53c-0.93-2.88-1.96-5.63-2.95-8.43
					c-2.88-8.13-5.97-15.93-9.26-23.35c-26.94-60.85-64.96-97.43-74.04-104.37c-9.09,6.93-47.11,43.51-74.05,104.37
					c-3.29,7.42-6.37,15.22-9.26,23.35c-0.99,2.79-2.01,5.52-2.94,8.39c-13.12,40.52-17.72,81.81-14.03,123.57
					C403.33,331.23,403.46,333.28,403.68,335.32z M503.42,196.67c24.28,0,43.96,19.68,43.96,43.96c0,19.97-13.4,36.63-31.63,41.99
					c-2.26,0.66-4.58,1.14-6.98,1.43c-1.77,0.22-3.52,0.54-5.36,0.54c-1.83,0-3.58-0.32-5.35-0.54c-2.4-0.29-4.72-0.77-6.98-1.43
					c-18.23-5.36-31.63-22.02-31.63-41.99C459.46,216.35,479.14,196.67,503.42,196.67z"/>
				<path class="st1" d="M440.51,724.01c-1.74,0.62-3.51,1.1-5.31,1.4c-1.72,0.25-3.39,0.39-5.52,0.34
					c-3.43-0.12-7.1-0.96-10.3-2.34c-3.25-1.4-6.19-3.43-8.63-5.93c-4.88-5.01-7.76-11.76-7.83-18.61l-0.06-5.88l-5.93,1.55
					c-4.58,1.19-8.54,1.73-13.05,1.25c-2.18-0.16-4.37-0.47-6.47-1.06c-2.13-0.49-4.18-1.29-6.18-2.14c-4-1.76-7.65-4.29-10.75-7.35
					c-3.15-3.01-5.8-6.55-7.76-10.45c-1.03-1.93-1.77-3.99-2.43-6.07c-0.65-2.15-1.02-4.19-1.32-6.18l-0.25-3.65l-0.07-0.93
					c0.01,0.21,0.01-0.41,0.01-0.58l0.02-1.65c0.06-1.27,0.31-2.51,0.49-3.77c0.13-0.92,0.16-1.85,0.36-2.76
					c1.24-5.62,3.94-10.87,7.55-15.47c1.91-2.44,4.01-4.74,6.45-6.7l3.14-2.52l-2.28-2.93c-3.06-3.94-5.02-8.73-5.67-13.73
					c-0.62-5.09,0.17-10.32,2.28-15.12c2.08-4.79,5.51-9.18,9.98-12.28c4.45-3.18,9.79-5.08,15.48-5.7
					c-5.63-0.45-11.68,0.56-16.86,3.44c-5.27,2.71-9.78,7.05-12.93,12.3c-3.16,5.28-4.63,11.56-4.5,17.8
					c0.05,2.27,0.44,4.51,0.97,6.72c0.17,0.69,0.31,1.38,0.52,2.06c0.63,2.03,1.47,3.99,2.47,5.87c-1.35,1.09-2.72,2.14-3.94,3.38
					c-0.68,0.68-1.24,1.48-1.87,2.2c-0.03,0.04-0.06,0.07-0.09,0.11c-4.33,5-7.67,10.87-9.51,17.31c-0.1,0.35-0.27,0.66-0.37,1.01
					c-0.69,2.67-1.16,5.4-1.41,8.16l-0.11,2.07l-0.04,1.28l0.03,0.93c0.05,1.26,0.07,2.43,0.19,3.77
					c0.58,5.95,2.16,11.07,4.58,16.14c2.43,4.99,5.72,9.55,9.7,13.43c4.01,3.84,8.7,6.98,13.81,9.16c2.56,1.07,5.17,2.02,7.88,2.62
					c2.68,0.7,5.45,1.07,8.2,1.23c0.63,0.06,1.29,0.03,1.93,0.05c2.25,0.06,4.54-0.07,6.81-0.42c0.83-0.13,1.64-0.3,2.45-0.47
					c0.21,0.95,0.48,1.86,0.76,2.79c0.66,2.15,1.51,4.21,2.56,6.18c1.91,3.6,4.35,6.91,7.41,9.57c3.39,3.02,7.36,5.36,11.61,6.85
					c4.28,1.52,8.68,2.07,13.27,1.78c1.88-0.13,4.2-0.48,6.42-1.04c2.12-0.57,4.18-1.34,6.15-2.27c3.89-1.97,7.34-4.69,10.12-7.91
					c2.78-3.22,4.9-6.94,6.22-10.88c1.37-3.93,1.71-8.12,1.39-12.13c-0.77,8.03-4.47,15.46-10.17,20.5
					C447.29,720.86,444,722.79,440.51,724.01z"/>
				<path class="st1" d="M668.01,657.17l-0.11-2.07c-0.25-2.75-0.72-5.48-1.41-8.16c-0.1-0.38-0.29-0.73-0.4-1.1
					c-1.85-6.39-5.15-12.21-9.44-17.18c-0.05-0.05-0.09-0.11-0.13-0.16c-0.63-0.73-1.19-1.52-1.87-2.2
					c-1.22-1.24-2.59-2.29-3.94-3.38c1-1.89,1.84-3.84,2.47-5.87c0.21-0.68,0.35-1.37,0.52-2.06c0.54-2.21,0.93-4.45,0.97-6.72
					c0.13-6.24-1.34-12.52-4.5-17.8c-3.15-5.24-7.66-9.58-12.93-12.3c-5.18-2.88-11.23-3.9-16.86-3.44
					c5.69,0.61,11.04,2.52,15.48,5.7c4.48,3.1,7.9,7.49,9.98,12.28c2.11,4.81,2.89,10.03,2.28,15.12c-0.65,5-2.61,9.79-5.67,13.73
					l-2.27,2.93l3.14,2.52c2.44,1.96,4.53,4.27,6.45,6.7c3.61,4.6,6.31,9.85,7.56,15.47c0.2,0.93,0.23,1.88,0.37,2.82
					c0.17,1.24,0.42,2.47,0.48,3.71l0.02,1.65c0,0.17,0,0.79,0.01,0.58l-0.07,0.93l-0.25,3.65c-0.3,1.99-0.67,4.04-1.32,6.18
					c-0.66,2.08-1.41,4.14-2.43,6.07c-1.96,3.9-4.61,7.44-7.76,10.45c-3.11,3.06-6.76,5.58-10.75,7.35c-2,0.86-4.05,1.66-6.18,2.14
					c-2.1,0.59-4.29,0.9-6.47,1.06c-4.51,0.48-8.47-0.06-13.05-1.25l-5.94-1.55l-0.06,5.88c-0.07,6.86-2.96,13.61-7.83,18.61
					c-2.44,2.5-5.39,4.53-8.63,5.93c-3.21,1.38-6.87,2.22-10.3,2.34c-2.14,0.05-3.81-0.1-5.52-0.34c-1.8-0.31-3.57-0.78-5.31-1.4
					c-3.48-1.22-6.77-3.15-9.61-5.67c-5.7-5.04-9.4-12.46-10.17-20.5c-0.32,4.01,0.02,8.2,1.39,12.13
					c1.32,3.94,3.44,7.66,6.22,10.88c2.78,3.22,6.22,5.94,10.12,7.91c1.97,0.93,4.02,1.7,6.15,2.27c2.22,0.55,4.54,0.91,6.42,1.04
					c4.6,0.28,8.99-0.27,13.27-1.78c4.25-1.49,8.21-3.83,11.61-6.85c3.06-2.66,5.49-5.97,7.41-9.57c1.05-1.97,1.9-4.04,2.56-6.18
					c0.29-0.93,0.56-1.84,0.76-2.79c0.81,0.17,1.62,0.34,2.45,0.47c2.27,0.35,4.56,0.48,6.81,0.42c0.64-0.02,1.3,0.01,1.93-0.05
					c2.75-0.16,5.52-0.53,8.2-1.23c2.71-0.6,5.33-1.56,7.88-2.62c5.11-2.18,9.8-5.32,13.81-9.16c3.98-3.87,7.27-8.44,9.7-13.43
					c2.42-5.07,4-10.19,4.58-16.14c0.12-1.34,0.14-2.51,0.19-3.77l0.03-0.93L668.01,657.17z"/>
			</g>
		</g>
		<text transform="matrix(1 0 0 1 131.1152 930.7822)" class="st0 st2 st3">DEBT STAR</text>
	</g>
</g>
</svg>